<svg width="330" height="82" viewBox="0 0 330 82" fill="none" xmlns="http://www.w3.org/2000/svg">
<path d="M122.962 34.952C122.288 33.6549 121.353 32.6821 120.156 32.0336C118.958 31.3601 117.574 31.0233 116.003 31.0233C114.281 31.0233 112.747 31.41 111.4 32.1832C110.053 32.9565 108.993 34.054 108.22 35.4759C107.472 36.8977 107.098 38.544 107.098 40.4148C107.098 42.2856 107.472 43.9444 108.22 45.3911C108.993 46.8129 110.053 47.9105 111.4 48.6838C112.747 49.457 114.281 49.8437 116.003 49.8437C118.322 49.8437 120.206 49.1951 121.652 47.898C123.099 46.6009 123.985 44.8424 124.309 42.6223H114.543V39.2175H128.874V42.5475C128.599 44.568 127.876 46.4263 126.704 48.1225C125.556 49.8187 124.047 51.1782 122.176 52.2009C120.33 53.1986 118.272 53.6975 116.003 53.6975C113.558 53.6975 111.326 53.1363 109.305 52.0138C107.285 50.8664 105.676 49.2824 104.478 47.2619C103.306 45.2415 102.72 42.9591 102.72 40.4148C102.72 37.8705 103.306 35.5881 104.478 33.5676C105.676 31.5472 107.285 29.9757 109.305 28.8532C111.351 27.7058 113.583 27.1321 116.003 27.1321C118.771 27.1321 121.228 27.818 123.374 29.1899C125.544 30.5369 127.115 32.4576 128.088 34.952H122.962ZM131.659 43.0713C131.659 41.001 132.083 39.1676 132.931 37.5712C133.804 35.9747 134.976 34.74 136.448 33.867C137.945 32.969 139.591 32.52 141.387 32.52C143.008 32.52 144.418 32.8443 145.615 33.4928C146.837 34.1164 147.81 34.9021 148.534 35.85V32.8567H152.836V53.473H148.534V50.4049C147.81 51.3777 146.825 52.1884 145.578 52.8369C144.331 53.4855 142.909 53.8098 141.312 53.8098C139.541 53.8098 137.92 53.3608 136.448 52.4628C134.976 51.5399 133.804 50.2677 132.931 48.6463C132.083 47 131.659 45.1417 131.659 43.0713ZM148.534 43.1462C148.534 41.7244 148.234 40.4896 147.636 39.442C147.062 38.3943 146.301 37.5961 145.353 37.0473C144.405 36.4986 143.383 36.2242 142.285 36.2242C141.188 36.2242 140.165 36.4986 139.217 37.0473C138.269 37.5712 137.496 38.3569 136.897 39.4045C136.323 40.4273 136.037 41.6495 136.037 43.0713C136.037 44.4931 136.323 45.7404 136.897 46.8129C137.496 47.8855 138.269 48.7087 139.217 49.2824C140.19 49.8312 141.212 50.1056 142.285 50.1056C143.383 50.1056 144.405 49.8312 145.353 49.2824C146.301 48.7336 147.062 47.9354 147.636 46.8878C148.234 45.8152 148.534 44.568 148.534 43.1462ZM168.841 32.52C170.462 32.52 171.909 32.8567 173.181 33.5302C174.478 34.2037 175.488 35.2015 176.212 36.5235C176.935 37.8455 177.297 39.442 177.297 41.3128V53.473H173.069V41.9488C173.069 40.103 172.607 38.6936 171.684 37.7208C170.761 36.7231 169.502 36.2242 167.905 36.2242C166.309 36.2242 165.037 36.7231 164.089 37.7208C163.166 38.6936 162.704 40.103 162.704 41.9488V53.473H158.439V32.8567H162.704V35.2139C163.403 34.3658 164.288 33.7048 165.361 33.2309C166.458 32.7569 167.618 32.52 168.841 32.52ZM191.044 32.52C192.64 32.52 194.05 32.8443 195.272 33.4928C196.519 34.1164 197.492 34.9021 198.19 35.85V32.8567H202.493V53.8098C202.493 55.7055 202.094 57.3892 201.296 58.8609C200.498 60.3576 199.338 61.53 197.816 62.3781C196.32 63.2262 194.524 63.6502 192.428 63.6502C189.635 63.6502 187.315 62.9892 185.469 61.6672C183.623 60.3701 182.575 58.599 182.326 56.3541H186.554C186.878 57.4267 187.564 58.2872 188.612 58.9358C189.684 59.6093 190.957 59.946 192.428 59.946C194.149 59.946 195.534 59.4222 196.581 58.3745C197.654 57.3269 198.19 55.8053 198.19 53.8098V50.3675C197.467 51.3403 196.482 52.1635 195.234 52.8369C194.012 53.4855 192.615 53.8098 191.044 53.8098C189.248 53.8098 187.602 53.3608 186.105 52.4628C184.633 51.5399 183.461 50.2677 182.588 48.6463C181.74 47 181.316 45.1417 181.316 43.0713C181.316 41.001 181.74 39.1676 182.588 37.5712C183.461 35.9747 184.633 34.74 186.105 33.867C187.602 32.969 189.248 32.52 191.044 32.52ZM198.19 43.1462C198.19 41.7244 197.891 40.4896 197.292 39.442C196.719 38.3943 195.958 37.5961 195.01 37.0473C194.062 36.4986 193.039 36.2242 191.942 36.2242C190.844 36.2242 189.822 36.4986 188.874 37.0473C187.926 37.5712 187.153 38.3569 186.554 39.4045C185.98 40.4273 185.693 41.6495 185.693 43.0713C185.693 44.4931 185.98 45.7404 186.554 46.8129C187.153 47.8855 187.926 48.7087 188.874 49.2824C189.847 49.8312 190.869 50.1056 191.942 50.1056C193.039 50.1056 194.062 49.8312 195.01 49.2824C195.958 48.7336 196.719 47.9354 197.292 46.8878C197.891 45.8152 198.19 44.568 198.19 43.1462ZM206.674 43.0713C206.674 41.001 207.098 39.1676 207.946 37.5712C208.819 35.9747 209.991 34.74 211.463 33.867C212.96 32.969 214.606 32.52 216.402 32.52C218.023 32.52 219.433 32.8443 220.63 33.4928C221.852 34.1164 222.825 34.9021 223.549 35.85V32.8567H227.851V53.473H223.549V50.4049C222.825 51.3777 221.84 52.1884 220.593 52.8369C219.345 53.4855 217.924 53.8098 216.327 53.8098C214.556 53.8098 212.935 53.3608 211.463 52.4628C209.991 51.5399 208.819 50.2677 207.946 48.6463C207.098 47 206.674 45.1417 206.674 43.0713ZM223.549 43.1462C223.549 41.7244 223.249 40.4896 222.651 39.442C222.077 38.3943 221.316 37.5961 220.368 37.0473C219.42 36.4986 218.398 36.2242 217.3 36.2242C216.203 36.2242 215.18 36.4986 214.232 37.0473C213.284 37.5712 212.511 38.3569 211.912 39.4045C211.338 40.4273 211.052 41.6495 211.052 43.0713C211.052 44.4931 211.338 45.7404 211.912 46.8129C212.511 47.8855 213.284 48.7087 214.232 49.2824C215.205 49.8312 216.227 50.1056 217.3 50.1056C218.398 50.1056 219.42 49.8312 220.368 49.2824C221.316 48.7336 222.077 47.9354 222.651 46.8878C223.249 45.8152 223.549 44.568 223.549 43.1462ZM242.022 53.7349C240.276 53.7349 238.705 53.4356 237.308 52.8369C235.911 52.2133 234.813 51.3403 234.015 50.2178C233.217 49.0953 232.818 47.7858 232.818 46.2891H237.383C237.482 47.4116 237.919 48.3345 238.692 49.0579C239.49 49.7813 240.6 50.143 242.022 50.143C243.494 50.143 244.641 49.7938 245.465 49.0953C246.288 48.372 246.699 47.449 246.699 46.3265C246.699 45.4535 246.437 44.7426 245.913 44.1938C245.415 43.645 244.779 43.221 244.005 42.9217C243.257 42.6223 242.209 42.2981 240.862 41.9488C239.166 41.4999 237.782 41.0509 236.709 40.6019C235.661 40.1279 234.763 39.4046 234.015 38.4317C233.267 37.4589 232.893 36.1618 232.893 34.5404C232.893 33.0438 233.267 31.7342 234.015 30.6118C234.763 29.4893 235.811 28.6287 237.158 28.03C238.505 27.4314 240.064 27.1321 241.835 27.1321C244.354 27.1321 246.412 27.7681 248.009 29.0403C249.63 30.2875 250.528 32.0086 250.703 34.2037H245.988C245.913 33.2558 245.465 32.4451 244.641 31.7717C243.818 31.0982 242.733 30.7614 241.386 30.7614C240.164 30.7614 239.166 31.0732 238.393 31.6968C237.62 32.3204 237.233 33.2184 237.233 34.3908C237.233 35.189 237.47 35.85 237.944 36.3738C238.443 36.8727 239.066 37.2718 239.815 37.5712C240.563 37.8705 241.586 38.1948 242.883 38.544C244.604 39.0179 246.001 39.4919 247.073 39.9658C248.171 40.4397 249.094 41.1756 249.842 42.1733C250.615 43.1462 251.002 44.4557 251.002 46.102C251.002 47.4241 250.64 48.6713 249.917 49.8437C249.219 51.016 248.183 51.9639 246.811 52.6873C245.465 53.3857 243.868 53.7349 242.022 53.7349ZM261.011 36.3364V47.7484C261.011 48.5216 261.186 49.0829 261.535 49.4321C261.909 49.7564 262.533 49.9185 263.406 49.9185H266.025V53.473H262.658C260.737 53.473 259.265 53.024 258.243 52.126C257.22 51.2281 256.709 49.7688 256.709 47.7484V36.3364H254.277V32.8567H256.709V27.7307H261.011V32.8567H266.025V36.3364H261.011ZM278.899 53.8098C276.953 53.8098 275.195 53.3732 273.623 52.5002C272.052 51.6022 270.817 50.355 269.919 48.7586C269.021 47.1372 268.572 45.2664 268.572 43.1462C268.572 41.0509 269.034 39.1925 269.957 37.5712C270.88 35.9498 272.139 34.7026 273.736 33.8295C275.332 32.9565 277.116 32.52 279.086 32.52C281.057 32.52 282.84 32.9565 284.437 33.8295C286.033 34.7026 287.293 35.9498 288.216 37.5712C289.139 39.1925 289.6 41.0509 289.6 43.1462C289.6 45.2415 289.126 47.0998 288.178 48.7212C287.23 50.3425 285.933 51.6022 284.287 52.5002C282.666 53.3732 280.87 53.8098 278.899 53.8098ZM278.899 50.1056C279.997 50.1056 281.019 49.8437 281.967 49.3198C282.94 48.796 283.726 48.0103 284.324 46.9626C284.923 45.915 285.222 44.6428 285.222 43.1462C285.222 41.6495 284.936 40.3898 284.362 39.3671C283.788 38.3195 283.027 37.5337 282.079 37.0099C281.132 36.4861 280.109 36.2242 279.011 36.2242C277.914 36.2242 276.891 36.4861 275.943 37.0099C275.02 37.5337 274.284 38.3195 273.736 39.3671C273.187 40.3898 272.912 41.6495 272.912 43.1462C272.912 45.3662 273.474 47.0873 274.596 48.3096C275.744 49.5069 277.178 50.1056 278.899 50.1056ZM298.082 35.85C298.706 34.8024 299.529 33.9917 300.552 33.418C301.599 32.8193 302.834 32.52 304.256 32.52V36.9351H303.171C301.499 36.9351 300.227 37.3591 299.354 38.2072C298.506 39.0553 298.082 40.527 298.082 42.6223V53.473H293.817V32.8567H298.082V35.85ZM327.072 42.6598C327.072 43.433 327.022 44.1315 326.922 44.7551H311.17C311.295 46.4014 311.906 47.7234 313.003 48.7212C314.101 49.7189 315.448 50.2178 317.044 50.2178C319.339 50.2178 320.96 49.2575 321.908 47.3368H326.511C325.887 49.2325 324.752 50.7915 323.106 52.0138C321.484 53.2111 319.464 53.8098 317.044 53.8098C315.074 53.8098 313.303 53.3732 311.731 52.5002C310.185 51.6022 308.962 50.355 308.064 48.7586C307.191 47.1372 306.755 45.2664 306.755 43.1462C306.755 41.0259 307.179 39.1676 308.027 37.5712C308.9 35.9498 310.11 34.7026 311.656 33.8295C313.228 32.9565 315.024 32.52 317.044 32.52C318.99 32.52 320.723 32.944 322.245 33.7921C323.767 34.6402 324.952 35.8375 325.8 37.3841C326.648 38.9057 327.072 40.6642 327.072 42.6598ZM322.619 41.3128C322.594 39.7413 322.033 38.4816 320.936 37.5337C319.838 36.5859 318.479 36.1119 316.857 36.1119C315.385 36.1119 314.126 36.5859 313.078 37.5337C312.03 38.4567 311.407 39.7164 311.207 41.3128H322.619Z" fill="white"/>
<rect opacity="0.2" width="74.8323" height="74.8323" rx="37.4161" fill="white"/>
<rect x="32.7393" y="31.1801" width="49.8882" height="49.8882" rx="24.9441" fill="white"/>
</svg>
