<svg width="211" height="52" viewBox="0 0 211 52" fill="none" xmlns="http://www.w3.org/2000/svg">
<path d="M78.872 22.12C78.44 21.288 77.84 20.664 77.072 20.248C76.304 19.816 75.416 19.6 74.408 19.6C73.304 19.6 72.32 19.848 71.456 20.344C70.592 20.84 69.912 21.544 69.416 22.456C68.936 23.368 68.696 24.424 68.696 25.624C68.696 26.824 68.936 27.888 69.416 28.816C69.912 29.728 70.592 30.432 71.456 30.928C72.32 31.424 73.304 31.672 74.408 31.672C75.896 31.672 77.104 31.256 78.032 30.424C78.96 29.592 79.528 28.464 79.736 27.04H73.472V24.856H82.664V26.992C82.488 28.288 82.024 29.48 81.272 30.568C80.536 31.656 79.568 32.528 78.368 33.184C77.184 33.824 75.864 34.144 74.408 34.144C72.84 34.144 71.408 33.784 70.112 33.064C68.816 32.328 67.784 31.312 67.016 30.016C66.264 28.72 65.888 27.256 65.888 25.624C65.888 23.992 66.264 22.528 67.016 21.232C67.784 19.936 68.816 18.928 70.112 18.208C71.424 17.472 72.856 17.104 74.408 17.104C76.184 17.104 77.76 17.544 79.136 18.424C80.528 19.288 81.536 20.52 82.16 22.12H78.872ZM84.4505 27.328C84.4505 26 84.7225 24.824 85.2665 23.8C85.8265 22.776 86.5785 21.984 87.5225 21.424C88.4825 20.848 89.5385 20.56 90.6905 20.56C91.7305 20.56 92.6345 20.768 93.4025 21.184C94.1865 21.584 94.8105 22.088 95.2745 22.696V20.776H98.0345V34H95.2745V32.032C94.8105 32.656 94.1785 33.176 93.3785 33.592C92.5785 34.008 91.6665 34.216 90.6425 34.216C89.5065 34.216 88.4665 33.928 87.5225 33.352C86.5785 32.76 85.8265 31.944 85.2665 30.904C84.7225 29.848 84.4505 28.656 84.4505 27.328ZM95.2745 27.376C95.2745 26.464 95.0825 25.672 94.6985 25C94.3305 24.328 93.8425 23.816 93.2345 23.464C92.6265 23.112 91.9705 22.936 91.2665 22.936C90.5625 22.936 89.9065 23.112 89.2985 23.464C88.6905 23.8 88.1945 24.304 87.8105 24.976C87.4425 25.632 87.2585 26.416 87.2585 27.328C87.2585 28.24 87.4425 29.04 87.8105 29.728C88.1945 30.416 88.6905 30.944 89.2985 31.312C89.9225 31.664 90.5785 31.84 91.2665 31.84C91.9705 31.84 92.6265 31.664 93.2345 31.312C93.8425 30.96 94.3305 30.448 94.6985 29.776C95.0825 29.088 95.2745 28.288 95.2745 27.376ZM108.3 20.56C109.34 20.56 110.268 20.776 111.084 21.208C111.916 21.64 112.564 22.28 113.028 23.128C113.492 23.976 113.724 25 113.724 26.2V34H111.012V26.608C111.012 25.424 110.716 24.52 110.124 23.896C109.532 23.256 108.724 22.936 107.7 22.936C106.676 22.936 105.86 23.256 105.252 23.896C104.66 24.52 104.364 25.424 104.364 26.608V34H101.628V20.776H104.364V22.288C104.812 21.744 105.38 21.32 106.068 21.016C106.772 20.712 107.516 20.56 108.3 20.56ZM122.542 20.56C123.566 20.56 124.47 20.768 125.254 21.184C126.054 21.584 126.678 22.088 127.126 22.696V20.776H129.886V34.216C129.886 35.432 129.63 36.512 129.118 37.456C128.606 38.416 127.862 39.168 126.886 39.712C125.926 40.256 124.774 40.528 123.43 40.528C121.638 40.528 120.15 40.104 118.966 39.256C117.782 38.424 117.11 37.288 116.95 35.848H119.662C119.87 36.536 120.31 37.088 120.982 37.504C121.67 37.936 122.486 38.152 123.43 38.152C124.534 38.152 125.422 37.816 126.094 37.144C126.782 36.472 127.126 35.496 127.126 34.216V32.008C126.662 32.632 126.03 33.16 125.23 33.592C124.446 34.008 123.55 34.216 122.542 34.216C121.39 34.216 120.334 33.928 119.374 33.352C118.43 32.76 117.678 31.944 117.118 30.904C116.574 29.848 116.302 28.656 116.302 27.328C116.302 26 116.574 24.824 117.118 23.8C117.678 22.776 118.43 21.984 119.374 21.424C120.334 20.848 121.39 20.56 122.542 20.56ZM127.126 27.376C127.126 26.464 126.934 25.672 126.55 25C126.182 24.328 125.694 23.816 125.086 23.464C124.478 23.112 123.822 22.936 123.118 22.936C122.414 22.936 121.758 23.112 121.15 23.464C120.542 23.8 120.046 24.304 119.662 24.976C119.294 25.632 119.11 26.416 119.11 27.328C119.11 28.24 119.294 29.04 119.662 29.728C120.046 30.416 120.542 30.944 121.15 31.312C121.774 31.664 122.43 31.84 123.118 31.84C123.822 31.84 124.478 31.664 125.086 31.312C125.694 30.96 126.182 30.448 126.55 29.776C126.934 29.088 127.126 28.288 127.126 27.376ZM132.568 27.328C132.568 26 132.84 24.824 133.384 23.8C133.944 22.776 134.696 21.984 135.64 21.424C136.6 20.848 137.656 20.56 138.808 20.56C139.848 20.56 140.752 20.768 141.52 21.184C142.304 21.584 142.928 22.088 143.392 22.696V20.776H146.152V34H143.392V32.032C142.928 32.656 142.296 33.176 141.496 33.592C140.696 34.008 139.784 34.216 138.76 34.216C137.624 34.216 136.584 33.928 135.64 33.352C134.696 32.76 133.944 31.944 133.384 30.904C132.84 29.848 132.568 28.656 132.568 27.328ZM143.392 27.376C143.392 26.464 143.2 25.672 142.816 25C142.448 24.328 141.96 23.816 141.352 23.464C140.744 23.112 140.088 22.936 139.384 22.936C138.68 22.936 138.024 23.112 137.416 23.464C136.808 23.8 136.312 24.304 135.928 24.976C135.56 25.632 135.376 26.416 135.376 27.328C135.376 28.24 135.56 29.04 135.928 29.728C136.312 30.416 136.808 30.944 137.416 31.312C138.04 31.664 138.696 31.84 139.384 31.84C140.088 31.84 140.744 31.664 141.352 31.312C141.96 30.96 142.448 30.448 142.816 29.776C143.2 29.088 143.392 28.288 143.392 27.376ZM155.241 34.168C154.121 34.168 153.113 33.976 152.217 33.592C151.321 33.192 150.617 32.632 150.105 31.912C149.593 31.192 149.337 30.352 149.337 29.392H152.265C152.329 30.112 152.609 30.704 153.105 31.168C153.617 31.632 154.329 31.864 155.241 31.864C156.185 31.864 156.921 31.64 157.449 31.192C157.977 30.728 158.241 30.136 158.241 29.416C158.241 28.856 158.073 28.4 157.737 28.048C157.417 27.696 157.009 27.424 156.513 27.232C156.033 27.04 155.361 26.832 154.497 26.608C153.409 26.32 152.521 26.032 151.833 25.744C151.161 25.44 150.585 24.976 150.105 24.352C149.625 23.728 149.385 22.896 149.385 21.856C149.385 20.896 149.625 20.056 150.105 19.336C150.585 18.616 151.257 18.064 152.121 17.68C152.985 17.296 153.985 17.104 155.121 17.104C156.737 17.104 158.057 17.512 159.081 18.328C160.121 19.128 160.697 20.232 160.809 21.64H157.785C157.737 21.032 157.449 20.512 156.921 20.08C156.393 19.648 155.697 19.432 154.833 19.432C154.049 19.432 153.409 19.632 152.913 20.032C152.417 20.432 152.169 21.008 152.169 21.76C152.169 22.272 152.321 22.696 152.625 23.032C152.945 23.352 153.345 23.608 153.825 23.8C154.305 23.992 154.961 24.2 155.793 24.424C156.897 24.728 157.793 25.032 158.481 25.336C159.185 25.64 159.777 26.112 160.257 26.752C160.753 27.376 161.001 28.216 161.001 29.272C161.001 30.12 160.769 30.92 160.305 31.672C159.857 32.424 159.193 33.032 158.313 33.496C157.449 33.944 156.425 34.168 155.241 34.168ZM167.422 23.008V30.328C167.422 30.824 167.534 31.184 167.758 31.408C167.998 31.616 168.398 31.72 168.958 31.72H170.638V34H168.478C167.246 34 166.302 33.712 165.646 33.136C164.99 32.56 164.662 31.624 164.662 30.328V23.008H163.102V20.776H164.662V17.488H167.422V20.776H170.638V23.008H167.422ZM178.895 34.216C177.647 34.216 176.519 33.936 175.511 33.376C174.503 32.8 173.711 32 173.135 30.976C172.559 29.936 172.271 28.736 172.271 27.376C172.271 26.032 172.567 24.84 173.159 23.8C173.751 22.76 174.559 21.96 175.583 21.4C176.607 20.84 177.751 20.56 179.015 20.56C180.279 20.56 181.423 20.84 182.447 21.4C183.471 21.96 184.279 22.76 184.871 23.8C185.463 24.84 185.759 26.032 185.759 27.376C185.759 28.72 185.455 29.912 184.847 30.952C184.239 31.992 183.407 32.8 182.351 33.376C181.311 33.936 180.159 34.216 178.895 34.216ZM178.895 31.84C179.599 31.84 180.255 31.672 180.863 31.336C181.487 31 181.991 30.496 182.375 29.824C182.759 29.152 182.951 28.336 182.951 27.376C182.951 26.416 182.767 25.608 182.399 24.952C182.031 24.28 181.543 23.776 180.935 23.44C180.327 23.104 179.671 22.936 178.967 22.936C178.263 22.936 177.607 23.104 176.999 23.44C176.407 23.776 175.935 24.28 175.583 24.952C175.231 25.608 175.055 26.416 175.055 27.376C175.055 28.8 175.415 29.904 176.135 30.688C176.871 31.456 177.791 31.84 178.895 31.84ZM191.2 22.696C191.6 22.024 192.128 21.504 192.784 21.136C193.456 20.752 194.248 20.56 195.16 20.56V23.392H194.464C193.392 23.392 192.576 23.664 192.016 24.208C191.472 24.752 191.2 25.696 191.2 27.04V34H188.464V20.776H191.2V22.696ZM209.795 27.064C209.795 27.56 209.763 28.008 209.699 28.408H199.595C199.675 29.464 200.067 30.312 200.771 30.952C201.475 31.592 202.339 31.912 203.363 31.912C204.835 31.912 205.875 31.296 206.483 30.064H209.435C209.035 31.28 208.307 32.28 207.251 33.064C206.211 33.832 204.915 34.216 203.363 34.216C202.099 34.216 200.963 33.936 199.955 33.376C198.963 32.8 198.179 32 197.603 30.976C197.043 29.936 196.763 28.736 196.763 27.376C196.763 26.016 197.035 24.824 197.579 23.8C198.139 22.76 198.915 21.96 199.907 21.4C200.915 20.84 202.067 20.56 203.363 20.56C204.611 20.56 205.723 20.832 206.699 21.376C207.675 21.92 208.435 22.688 208.979 23.68C209.523 24.656 209.795 25.784 209.795 27.064ZM206.939 26.2C206.923 25.192 206.563 24.384 205.859 23.776C205.155 23.168 204.283 22.864 203.243 22.864C202.299 22.864 201.491 23.168 200.819 23.776C200.147 24.368 199.747 25.176 199.619 26.2H206.939Z" fill="#FA7275"/>
<rect opacity="0.2" width="48" height="48" rx="24" fill="#FA7275"/>
<rect x="21" y="20" width="32" height="32" rx="16" fill="#FA7275"/>
</svg>
